<svg xmlns="http://www.w3.org/2000/svg" id="discussion" viewBox="0 0 64 64">
  <path d="M59.44 38.63c.96-.91 1.56-2.2 1.56-3.63v-4c0-2.76-2.24-5-5-5h-2c-2.76 0-5 2.24-5 5v4c0 1.4.58 2.67 1.51 3.58-.55.29-1.05.68-1.47 1.17l-4.5 5.25h-3.54v-2c0-3.12-2.05-5.76-4.87-6.66 0 0 0 0 0 0 1.15-1.09 1.86-2.63 1.86-4.33v-3c0-2.76-2.24-5-5-5h-2c-2.76 0-5 2.24-5 5v3c0 1.7.71 3.24 1.86 4.33 0 0 0 0 0 0-2.82.9-4.87 3.55-4.87 6.66v2h-3.54l-4.5-5.25c-.42-.49-.92-.88-1.47-1.17.93-.91 1.51-2.18 1.51-3.58v-4c0-2.76-2.24-5-5-5h-2c-2.76 0-5 2.24-5 5v4c0 1.43.6 2.72 1.56 3.63-1.53.86-2.56 2.5-2.56 4.37v15c0 .55.45 1 1 1s1-.45 1-1v-15c0-1.65 1.35-3 3-3h4.16c.88 0 1.71.38 2.28 1.05l4.8 5.6c.19.22.47.35.76.35h5c1.3 0 2.42.84 2.83 2h-8.91c-.91 0-1.77-.41-2.34-1.13l-2.8-3.49c-.34-.43-.97-.51-1.4-.16-.44.34-.51.97-.16 1.4l1.79 2.24s-.01.09-.01.14v10c0 .55.45 1 1 1h36c.55 0 1-.45 1-1v-10s0-.1-.01-.14l1.79-2.24c.35-.43.28-1.06-.16-1.4-.43-.34-1.06-.27-1.4.16l-2.8 3.49c-.57.72-1.43 1.13-2.34 1.13h-8.91c.41-1.16 1.53-2 2.83-2h5c.29 0 .57-.13.76-.35l4.8-5.6c.57-.67 1.4-1.05 2.28-1.05h4.16c1.65 0 3 1.35 3 3v15c0 .55.45 1 1 1s1-.45 1-1v-15c0-1.87-1.03-3.51-2.56-4.37Zm-46.44-3.63c0 1.65-1.35 3-3 3h-2c-1.3 0-2.41-.84-2.82-2h.76c1.67 0 3.12-1.13 3.53-2.76.18-.73.84-1.24 1.59-1.24h1.94v3Zm15-3.03c2.87-.15 4.72-.95 5.74-1.55.72.85 1.6 1.24 2.26 1.43v.15c0 2.21-1.79 4-4 4s-4-1.79-4-4v-.03Zm21 23.03v2H15v-2h34Zm-10-9.9c-1.96.4-3.5 1.94-3.9 3.9h-6.2c-.4-1.96-1.94-3.5-3.9-3.9v-2.1c0-2.76 2.24-5 5-5h4c2.76 0 5 2.24 5 5v2.1Zm17-7.1h-2c-1.65 0-3-1.35-3-3v-3h1.94c.75 0 1.41.51 1.59 1.24.41 1.63 1.86 2.76 3.53 2.76h.76c-.41 1.16-1.52 2-2.82 2ZM24 19h5.46l1.71 2.55c.18.28.5.45.83.45s.65-.17.83-.45l1.71-2.55h5.46c1.65 0 3-1.35 3-3v-8c0-1.65-1.35-3-3-3h-16c-1.65 0-3 1.35-3 3v8c0 1.65 1.35 3 3 3Zm2-10h12c.55 0 1 .45 1 1s-.45 1-1 1h-12c-.55 0-1-.45-1-1s.45-1 1-1Zm0 4h8c.55 0 1 .45 1 1s-.45 1-1 1h-8c-.55 0-1-.45-1-1s.45-1 1-1Z"></path>
</svg>
