<svg xmlns="http://www.w3.org/2000/svg" viewBox="0 0 64 64" id="envelope">
  <path d="M59.98431 13.7537c-.64872.59235-17.55175 15.68435-18.68621 16.7066 1.227 1.20695 17.94328 17.81991 18.69637 18.56633C59.98189 48.90274 60.01525 13.86294 59.98431 13.7537zM22.48191 30.69027C21.24 29.56241 4.796 14.524 4.01555 13.81358c-.04413-.00074.011 35.45434-.00992 35.4728C4.70286 48.5829 21.31488 31.85781 22.48191 30.69027zM39.7984 31.8l-3.15933 2.81943a7.36572 7.36572 0 01-9.918-.06L23.96165 32.04 6.97505 49.13654c.0193.0003-2.05512 2.02749-1.96962 1.99959H58.99452a.68973.68973 0 00.24995-.04C58.7812 50.68405 40.82613 32.79112 39.7984 31.8z"></path>
  <path d="M24.29154,29.64049c.372.321,3.33583,3.05151,3.77927,3.44924a5.39347,5.39347,0,0,0,7.23852.04l3.69926-3.30933.30993-.28,16.41665-14.677,2.23954-1.99959H5.92527l2.18956,1.99959Z"></path>
</svg>
