<svg xmlns="http://www.w3.org/2000/svg" viewBox="0 0 144.702 237.183" id="father-and-son">
  <path d="M117.817 99.984h5.439c.416 0 .835.031 1.276.095 4.2.208 8.077 1.996 11.223 5.178.563.569 1.103 1.19 1.625 1.856-.375-4.031-2.132-7.612-5.211-10.459-1.757-1.624-3.913-2.896-6.293-3.912a22.739 22.739 0 0 1-8.059 7.242zM75.482 175.75c-4.77 0-8.694-3.88-8.749-8.65-.358-31.389 2.931-50.606 10.319-60.015V74.893c2.292 4.695 4.654 12.191 5.949 24.083a7.99 7.99 0 0 0 .768 2.63 16.173 16.173 0 0 1 6.107-1.527c.44-.064.86-.095 1.276-.095h5.441c-7.113-3.805-11.965-11.306-11.965-19.921 0-5.623 2.071-10.768 5.484-14.724-2.307-4.092-5.005-7.389-8.102-9.847-5.023-3.987-9.74-4.716-12.248-4.772-.146-.008-.29-.022-.438-.022H30.689c-.164 0-.325.014-.487.025-2.816.067-8.296.974-13.906 6.245C3.404 69.081-1.88 96.644.591 138.892a8 8 0 0 0 8.454 7.519 8 8 0 0 0 7.519-8.453c-2.056-35.14 1.926-53.87 6.397-63.168v150.029c0 6.83 5.537 12.363 12.363 12.363 6.828 0 12.365-5.533 12.365-12.363v-90.271h4.635v90.271c0 6.83 5.537 12.363 12.363 12.363 6.828 0 12.365-5.533 12.365-12.363v-49.218a8.845 8.845 0 0 1-1.469.148l-.101.001zM27.506 22.5c0 12.427 10.074 22.5 22.5 22.5 12.428 0 22.5-10.073 22.5-22.5S62.434 0 50.006 0c-12.425 0-22.5 10.073-22.5 22.5zm36.164 5.579c-2.832 4.587-7.889 7.66-13.663 7.66s-10.831-3.073-13.663-7.66H63.67z"></path>
  <path d="M133.621 107.366c-2.663-2.694-5.9-4.162-9.384-4.297a6.086 6.086 0 0 0-.981-.085H91.152c-.335 0-.662.033-.981.085-3.483.135-6.719 1.603-9.382 4.297-7.808 7.898-11.424 27.426-11.056 59.699a5.75 5.75 0 0 0 5.749 5.684h.066a5.75 5.75 0 0 0 5.685-5.815c-.283-24.736 1.915-37.798 4.19-44.685V227.013c0 5.471 4.436 9.908 9.911 9.908 5.469 0 9.906-4.437 9.906-9.908v-51.101h3.928v51.101c0 5.471 4.437 9.908 9.91 9.908 5.471 0 9.908-4.437 9.908-9.908V122.246c2.275 6.887 4.473 19.948 4.19 44.687a5.75 5.75 0 0 0 5.685 5.815h.066a5.75 5.75 0 0 0 5.749-5.684c.369-32.272-3.247-51.8-11.055-59.698zm-6.839-27.303c0-10.812-8.765-19.577-19.577-19.577s-19.577 8.765-19.577 19.577c0 10.812 8.765 19.577 19.577 19.577s19.577-8.764 19.577-19.577zm-31.083 7.113h23.012c-2.385 3.862-6.643 6.45-11.506 6.45s-9.122-2.587-11.506-6.45z"></path>
</svg>
