<svg xmlns="http://www.w3.org/2000/svg" width="24" height="24" fill-rule="evenodd" stroke-linejoin="round" stroke-miterlimit="2" clip-rule="evenodd" id="speech-bubble">
  <path d="M199,117L199,125.586C199,126.395 199.487,127.124 200.235,127.434C200.982,127.743 201.842,127.572 202.414,127C202.414,127 204.414,125 204.414,125L211,125C214.314,125 217,122.314 217,119L217,117C217,113.686 214.314,111 211,111C209.089,111 206.911,111 205,111C201.686,111 199,113.686 199,117ZM201,125.586C201,125.586 201,117 201,117C201,114.791 202.791,113 205,113C205,113 211,113 211,113C213.209,113 215,114.791 215,117C215,117 215,119 215,119C215,121.209 213.209,123 211,123C211,123 204,123 204,123C203.735,123 203.48,123.105 203.293,123.293L201,125.586ZM204,117C204.552,117 205,117.448 205,118C205,118.552 204.552,119 204,119C203.448,119 203,118.552 203,118C203,117.448 203.448,117 204,117ZM208,117C208.552,117 209,117.448 209,118C209,118.552 208.552,119 208,119C207.448,119 207,118.552 207,118C207,117.448 207.448,117 208,117ZM212,117C212.552,117 213,117.448 213,118C213,118.552 212.552,119 212,119C211.448,119 211,118.552 211,118C211,117.448 211.448,117 212,117Z" transform="translate(-196 -108)"></path>
</svg>
